<?xml version="1.0" encoding="UTF-8"?>
<svg version="1.1" xmlns="http://www.w3.org/2000/svg" width="415" height="262">
<path d="M0 0 C136.95 0 273.9 0 415 0 C415 86.46 415 172.92 415 262 C278.05 262 141.1 262 0 262 C0 175.54 0 89.08 0 0 Z " fill="#59BFB9" transform="translate(0,0)"/>
<path d="M0 0 C38.61 0 77.22 0 117 0 C116.67 2.97 116.34 5.94 116 9 C115.4225 8.34 114.845 7.68 114.25 7 C112.00346023 4.55709077 112.00346023 4.55709077 108 5 C107.67 5.99 107.34 6.98 107 8 C104.68020619 9.03101947 102.34570085 10.02936517 100 11 C97.93073381 12.61260055 97.11329341 13.46415279 96.56640625 16.05078125 C96.55690746 21.55058252 97.36860148 24.62096061 101 29 C103.49505962 31.49505962 104.67328888 31.35948376 108.125 31.625 C109.03507812 31.69976563 109.94515625 31.77453125 110.8828125 31.8515625 C111.58148438 31.90054687 112.28015625 31.94953125 113 32 C113 31.34 113 30.68 113 30 C114.3125 28.5625 114.3125 28.5625 116 27 C116.556875 26.443125 117.11375 25.88625 117.6875 25.3125 C118.120625 24.879375 118.55375 24.44625 119 24 C119.8125 26.1875 119.8125 26.1875 120 29 C117.61105318 32.09157823 115.96805899 33.72033851 112.1875 34.8125 C111.465625 34.874375 110.74375 34.93625 110 35 C110.19471111 36.94999129 110.19471111 36.94999129 111 39 C113.00213945 40.1470525 113.00213945 40.1470525 115 41 C113.88882813 41.68964844 112.77765625 42.37929688 111.6328125 43.08984375 C103.08578409 48.46190447 95.20816162 53.87104895 88 61 C87.29617187 61.65484375 86.59234375 62.3096875 85.8671875 62.984375 C68.84039072 79.16954305 57.40330805 104.72718365 56.69921875 128.20703125 C56.68041028 130.4087773 56.67690129 132.61069913 56.6875 134.8125 C56.69023926 135.96161865 56.69297852 137.1107373 56.69580078 138.29467773 C56.79517427 146.34107469 57.64286531 153.29444293 60 161 C60.23682968 162.4362574 60.46635782 163.87374368 60.6875 165.3125 C65.96585496 189.35341081 86.11956962 211.4121057 106.03125 224.31640625 C106.5778125 224.66574219 107.124375 225.01507813 107.6875 225.375 C108.450625 225.91125 109.21375 226.4475 110 227 C110 227.66 110 228.32 110 229 C109.360625 229.495 108.72125 229.99 108.0625 230.5 C104.95695699 234.26429456 105.18132459 238.24929563 105 243 C104.319375 242.67 103.63875 242.34 102.9375 242 C98.32344594 240.42925819 94.61325973 240.21129524 90.1875 242.375 C87.94273063 243.95996212 87.94273063 243.95996212 86 246 C85.64166969 248.49585904 85.64166969 248.49585904 85.6875 251.3125 C85.66236328 252.72982422 85.66236328 252.72982422 85.63671875 254.17578125 C85.87981503 257.55693383 85.87981503 257.55693383 89 262 C59.63 262 30.26 262 0 262 C0 175.54 0 89.08 0 0 Z " fill="#58BFB9" transform="translate(0,0)"/>
<path d="M0 0 C2.48024252 1.65162876 4.09007761 3.69175704 5.73046875 6.15234375 C5.91609375 4.23421875 5.91609375 4.23421875 6.10546875 2.27734375 C6.48046875 -1.59765625 6.48046875 -1.59765625 8.73046875 -3.84765625 C13.89023998 -4.39656808 13.89023998 -4.39656808 16.39761353 -2.75852966 C18.41275409 0.13051519 18.11203631 2.54520461 18.11865234 6.03881836 C18.1239093 6.73508835 18.12916626 7.43135834 18.13458252 8.14872742 C18.14778889 10.45094217 18.13904175 12.75246567 18.12890625 15.0546875 C18.13092704 16.65507642 18.13383853 18.25546445 18.13760376 19.85585022 C18.14202815 23.21087405 18.13559338 26.56565831 18.12158203 29.9206543 C18.10450369 34.21941455 18.11432172 38.51761235 18.13229942 42.81635189 C18.14314606 46.12179289 18.13968668 49.42710082 18.13191605 52.73254585 C18.12991575 54.31736887 18.13236735 55.90220399 18.13935471 57.48701286 C18.14698235 59.70382493 18.13534713 61.91973001 18.11865234 64.13647461 C18.11626556 65.39761581 18.11387878 66.65875702 18.11141968 67.95811462 C17.70492214 71.36654907 17.19542063 72.79763426 14.73046875 75.15234375 C11.57815743 75.61205582 9.66110509 75.7299801 6.91796875 74.02734375 C5.30818606 71.4855816 5.05937866 69.11253295 4.73046875 66.15234375 C4.32957031 66.5390625 3.92867188 66.92578125 3.515625 67.32421875 C-4.63255841 74.78876773 -11.52577637 76.82611634 -22.625 76.4609375 C-33.56918619 75.53425936 -41.89634597 70.98324481 -49.37890625 62.86328125 C-57.38453222 52.36017368 -59.65748375 40.12545083 -58.26953125 27.15234375 C-55.82638151 16.33660219 -49.59410803 6.30259652 -40.26953125 0.15234375 C-27.16013593 -6.63430258 -13.11006834 -6.93446728 0 0 Z " fill="#F9FCFC" transform="translate(358.26953125,110.84765625)"/>
<path d="M0 0 C0.66386719 0.21962402 1.32773438 0.43924805 2.01171875 0.66552734 C23.68293343 7.84691251 41.37101435 20.73135966 55 39 C53.1875 41 53.1875 41 51 43 C50.01 43 49.02 43 48 43 C46.203125 41.05859375 46.203125 41.05859375 44.25 38.4375 C30.30034174 20.51658768 8.36351445 7.47462268 -14.30761719 4.28125 C-36.58907754 1.9536981 -56.7271882 4.02017094 -76.29882812 15.04345703 C-77.78307745 15.87802776 -79.28844593 16.67481456 -80.796875 17.46484375 C-102.65553192 29.47318234 -117.38064991 51.9946763 -124.25 75.375 C-131.42248493 100.94902413 -126.2738472 125.91118712 -114.42578125 149.078125 C-101.27980444 171.98453938 -79.50255271 187.51827921 -54.31933594 194.77099609 C-29.34396423 201.30655231 -3.23579693 196.66466078 19.05078125 184.30859375 C28.21504997 178.72188962 36.63053508 172.06863244 43.49609375 163.796875 C45.52445736 161.37337562 47.73254114 159.19874799 50 157 C51.65 158.65 53.3 160.3 55 162 C36.93767886 184.07985949 13.53824981 200.93918327 -15.58349609 204.77294922 C-29.63541372 206.09324457 -44.44513479 206.26503402 -58 202 C-59.65708984 201.50693359 -59.65708984 201.50693359 -61.34765625 201.00390625 C-76.88918064 195.94020777 -90.10645155 188.14613966 -102 177 C-103.22976562 175.89011719 -103.22976562 175.89011719 -104.484375 174.7578125 C-117.01470006 162.96202374 -126.29443458 146.52335951 -131 130 C-131.350625 129.05125 -131.70125 128.1025 -132.0625 127.125 C-139.61834372 101.93885426 -135.3976281 74.37663875 -123.43359375 51.36328125 C-113.72408193 33.58382787 -99.74129887 18.84961751 -82 9 C-81.41863281 8.67563965 -80.83726563 8.3512793 -80.23828125 8.01708984 C-56.38540764 -5.11383809 -25.98165159 -9.12181898 0 0 Z " fill="#F8FCFC" transform="translate(191,35)"/>
<path d="M0 0 C4.78339336 2.93894931 7.5477494 6.57838094 9 12 C9.45355306 16.31883711 9.46436172 20.59811199 9.4375 24.9375 C9.4674707 26.64969727 9.4674707 26.64969727 9.49804688 28.39648438 C9.49337803 36.47826365 8.38071013 41.9871823 3.140625 48.20703125 C-2.3442896 52.86467568 -7.11466729 55.56015101 -14.3125 56.375 C-24.38874066 55.35029756 -31.18094005 52.69802402 -38 45 C-44.05440364 36.83242501 -43.83955979 26.75124001 -43 17 C-41.39480044 8.70285365 -36.74006463 3.82093817 -30 -1 C-20.79960518 -6.66178143 -9.12163559 -5.05655886 0 0 Z " fill="#5AC0BA" transform="translate(355,121)"/>
<path d="M0 0 C0.87709122 0.00091141 1.75418243 0.00182281 2.65785217 0.00276184 C3.5579451 -0.00152328 4.45803802 -0.00580841 5.38540649 -0.01022339 C7.29107318 -0.01597221 9.19676182 -0.0164629 11.10243225 -0.01213074 C14.02167652 -0.00897322 16.93990536 -0.03241424 19.85902405 -0.05778503 C21.70863214 -0.06005818 23.55824297 -0.06076145 25.40785217 -0.05973816 C26.28291916 -0.06894791 27.15798615 -0.07815765 28.05957031 -0.08764648 C28.87373917 -0.08141769 29.68790802 -0.0751889 30.52674866 -0.06877136 C31.24241501 -0.06940079 31.95808136 -0.07003021 32.69543457 -0.07067871 C35.27720711 0.43680289 36.10637776 1.13802024 37.59925842 3.30354309 C37.98020935 5.93731689 37.98020935 5.93731689 37.98744202 9.14509583 C37.9968985 10.34742355 38.00635498 11.54975128 38.01609802 12.78851318 C38.01002533 14.09155899 38.00395264 15.3946048 37.99769592 16.73713684 C37.99971882 18.09415849 38.00263206 19.45117908 38.00639343 20.80819702 C38.01082019 23.65888268 38.00438387 26.50928667 37.9903717 29.35993958 C37.97342557 32.98086454 37.98302446 36.60111517 38.0010891 40.22201443 C38.01204375 43.0302416 38.00842536 45.83831494 38.00070572 48.64654732 C37.99777643 50.62038744 38.00676883 52.59423395 38.01609802 54.5680542 C37.90413705 69.13901707 35.05178988 80.13986863 24.59925842 90.55354309 C15.42393953 98.19964217 4.3075868 100.39681286 -7.34605408 99.78010559 C-17.36708191 98.84518551 -25.96228073 93.97381992 -32.40074158 86.30354309 C-36.93725843 79.57860299 -39.08121644 73.6053866 -38.90464783 65.48323059 C-38.40074158 63.30354309 -38.40074158 63.30354309 -35.40074158 61.30354309 C-29.95629713 61.74798754 -29.95629713 61.74798754 -27.40074158 64.30354309 C-27.29761658 65.47916809 -27.19449158 66.65479309 -27.08824158 67.86604309 C-26.40705534 74.01905324 -23.95438224 79.12771379 -19.20933533 83.17073059 C-11.74251263 88.31262827 -5.41638534 89.0826728 3.59925842 88.30354309 C12.23775194 86.24911627 18.93173536 81.5055043 23.67298889 74.03694153 C26.57525133 68.08817782 26.20235707 61.89074941 26.20863342 55.39729309 C26.22363834 54.06349198 26.2403703 52.72970929 26.25874329 51.39595032 C26.30217101 47.91079284 26.32236051 44.42588587 26.33747864 40.94050598 C26.35713935 37.37386918 26.39909873 33.80749946 26.43910217 30.24104309 C26.51413692 23.26197772 26.56458946 16.28292268 26.59925842 9.30354309 C25.61006409 9.31401672 24.62086975 9.32449036 23.60169983 9.33528137 C19.93783679 9.37143328 16.27398956 9.39442591 12.61000061 9.41340637 C11.0230596 9.42347497 9.43613718 9.43713076 7.84925842 9.454422 C5.57056595 9.4786331 3.29211837 9.49001731 1.01332092 9.49885559 C0.30180878 9.50917816 -0.40970337 9.51950073 -1.14277649 9.53013611 C-2.89705823 9.53053731 -4.65070866 9.42556518 -6.40074158 9.30354309 C-8.40074158 7.30354309 -8.40074158 7.30354309 -8.65074158 4.80354309 C-8.11142058 -0.58966688 -4.58952797 0.05394148 0 0 Z " fill="#FBFDFD" transform="translate(149.40074157714844,87.69645690917969)"/>
<path d="M0 0 C3 2 3 2 3.51171875 3.9453125 C3.67447917 5.96354167 3.83723958 7.98177083 4 10 C5.051875 8.88625 5.051875 8.88625 6.125 7.75 C11.52021452 2.58936003 16.02157514 -0.12938024 23.5 -0.25 C24.4590625 -0.27578125 25.418125 -0.3015625 26.40625 -0.328125 C29 0 29 0 30.859375 1.35546875 C32 3 32 3 31.75 5.5625 C31 8 31 8 30 10 C27.77024909 10.58370443 25.51401391 11.06786457 23.25 11.5 C16.92237877 12.6349416 16.92237877 12.6349416 11 15 C9.74641646 16.85086031 9.74641646 16.85086031 9 19 C8.65839844 19.66 8.31679688 20.32 7.96484375 21 C7.62582031 21.66 7.28679687 22.32 6.9375 23 C6.59589844 23.66 6.25429688 24.32 5.90234375 25 C4.31804973 28.51150882 3.87415421 31.70321026 3.84228516 35.53735352 C3.83202301 36.42830215 3.82176086 37.31925079 3.81118774 38.23719788 C3.80388641 39.19146164 3.79658508 40.1457254 3.7890625 41.12890625 C3.76100962 43.1530031 3.73234528 45.17709154 3.703125 47.20117188 C3.66176102 50.3898916 3.62486876 53.57845175 3.59863281 56.76733398 C3.57110831 59.84651907 3.52525652 62.9249931 3.4765625 66.00390625 C3.47330963 66.96019424 3.47005676 67.91648224 3.46670532 68.90174866 C3.45013885 69.78954514 3.43357239 70.67734161 3.41650391 71.59204102 C3.40841705 72.37273453 3.4003302 73.15342804 3.39199829 73.95777893 C2.89859431 76.52830038 2.05794271 77.42463502 0 79 C-2.76030391 79.41404559 -4.28231737 79.47771249 -6.63198853 77.91369629 C-8.71121885 75.00508373 -8.38158291 72.5488413 -8.38818359 69.00585938 C-8.39344055 68.29822952 -8.39869751 67.59059967 -8.40411377 66.86152649 C-8.41731947 64.52204323 -8.40857415 62.1832402 -8.3984375 59.84375 C-8.40045808 58.21854522 -8.40336939 56.59334132 -8.40713501 54.96813965 C-8.41155912 51.56184254 -8.40512466 48.15578141 -8.39111328 44.74951172 C-8.37402117 40.38115404 -8.38386191 36.01334929 -8.40183067 31.6450119 C-8.41266627 28.2889997 -8.40922324 24.9331188 -8.4014473 21.57710266 C-8.39944466 19.96633336 -8.4019068 18.35555218 -8.40888596 16.74479675 C-8.41649698 14.49425639 -8.40490228 12.24461402 -8.38818359 9.99414062 C-8.38579681 8.71301392 -8.38341003 7.43188721 -8.38095093 6.11193848 C-8 3 -8 3 -6.63198853 1.08239746 C-4.30708608 -0.45956712 -2.73213549 -0.34151694 0 0 Z " fill="#FCFDFD" transform="translate(256,107)"/>
<path d="M0 0 C2.97641254 0.53422789 3.68211051 0.99212688 5.4375 3.4375 C5.8117218 6.54943848 5.8117218 6.54943848 5.80981445 10.43164062 C5.81346512 11.13927048 5.81711578 11.84690033 5.82087708 12.57597351 C5.82898424 14.91547635 5.81537172 17.25428689 5.80078125 19.59375 C5.80026266 21.21895345 5.80078032 22.84415753 5.80229187 24.46936035 C5.80220214 27.8756649 5.79177119 31.28173282 5.77368164 34.68798828 C5.75099436 39.05625593 5.75045025 43.42417775 5.75719929 47.7924881 C5.76053932 51.14848916 5.75390854 54.50441125 5.74407005 57.86039734 C5.74021835 59.47116177 5.73906971 61.08193499 5.7406559 62.69270325 C5.74102639 64.9430925 5.7284114 67.19303689 5.7121582 69.44335938 C5.70755081 70.72448608 5.70294342 72.00561279 5.69819641 73.32556152 C5.4375 76.4375 5.4375 76.4375 3.4375 79.4375 C0 79.875 0 79.875 -3.5625 79.4375 C-6.03589215 77.11247892 -6.53324964 75.67513171 -6.95018005 72.28796387 C-6.95558304 71.04760376 -6.96098602 69.80724365 -6.96655273 68.52929688 C-6.97341599 67.84263443 -6.98027924 67.15597198 -6.98735046 66.44850159 C-7.00561588 64.18420597 -7.00178208 61.9206033 -6.99609375 59.65625 C-7.00065533 58.07970962 -7.00596083 56.50317124 -7.01197815 54.92663574 C-7.02090842 51.62467361 -7.01848677 48.32295335 -7.00854492 45.02099609 C-6.99704825 40.79052569 -7.01727702 36.56088912 -7.04646206 32.33052826 C-7.06481061 29.07569074 -7.06453447 25.82105362 -7.05882454 22.56617737 C-7.05867119 21.0064629 -7.06472644 19.44673497 -7.07711601 17.8870697 C-7.09200188 15.70608214 -7.08136964 13.52664237 -7.06420898 11.34570312 C-7.06404282 10.10534302 -7.06387665 8.86498291 -7.06370544 7.58703613 C-6.35347357 3.12399413 -4.5298605 0.77339082 0 0 Z " fill="#F4FAFA" transform="translate(217.5625,106.5625)"/>
<path d="M0 0 C2.27734375 0.17578125 2.27734375 0.17578125 5 1 C6.87890625 3.29296875 6.87890625 3.29296875 8.5625 6.1875 C9.15417969 7.18652344 9.74585937 8.18554688 10.35546875 9.21484375 C10.89816406 10.13394531 11.44085938 11.05304687 12 12 C12.78121901 13.09089141 13.57040609 14.17623286 14.375 15.25 C16.3835056 18.64900947 16.92954987 21.05479294 17 25 C15.72987797 29.04851396 14.16512921 31.17208117 10.625 33.375 C7.298822 34.86604531 5.55152801 35.43048824 2 35 C2 33.68 2 32.36 2 31 C2.56589844 30.78085937 3.13179687 30.56171875 3.71484375 30.3359375 C5.97064641 29.36066957 7.98235613 28.40765852 10 27 C11.13478935 23.87866256 11.13478935 23.87866256 11 21 C10.38125 21.825 9.7625 22.65 9.125 23.5 C8.42375 24.325 7.7225 25.15 7 26 C6.34 26 5.68 26 5 26 C5 26.66 5 27.32 5 28 C-3.58830605 29.06929502 -3.58830605 29.06929502 -6.96484375 26.51171875 C-10.94223578 21.81470078 -12.42313015 18.42360263 -12.34375 12.26171875 C-12 10 -12 10 -9.875 7 C-6.78007546 4.84700902 -4.72790821 4.26008662 -1 4 C-0.67 2.68 -0.34 1.36 0 0 Z " fill="#77C2BE" transform="translate(108,4)"/>
<path d="M0 0 C4.37745509 2.8410996 8.03963964 6.08475499 10 11 C10.75201969 17.66074581 10.75201969 17.66074581 9.01953125 20.74609375 C7.75 22.3125 7.75 22.3125 5 25 C4.38125 25.61875 3.7625 26.2375 3.125 26.875 C-0.06542567 28.56404888 -2.44200456 28.36806849 -6 28 C-11.1429255 26.35426384 -13.49328397 23.67133516 -16.08984375 19.12109375 C-17.83791918 15.04725272 -17.34077384 11.59027794 -16.4375 7.375 C-12.90823716 1.544044 -6.80644318 -2.06647231 0 0 Z " fill="#75C2BE" transform="translate(329,72)"/>
<path d="M0 0 C2.97148272 3.87971302 3.50997562 7.22745512 3.9140625 12.03125 C3.97403412 12.70361694 4.03400574 13.37598389 4.09579468 14.06872559 C4.28405863 16.21165695 4.45476104 18.35556944 4.625 20.5 C4.74624909 21.90895332 4.86863559 23.31780925 4.9921875 24.7265625 C5.23245193 27.49004579 5.45984827 30.2541204 5.67675781 33.01953125 C5.88817797 35.62300121 6.12104532 38.22484099 6.37792969 40.82421875 C6.48782227 41.98566406 6.59771484 43.14710937 6.7109375 44.34375 C6.8145459 45.36662109 6.9181543 46.38949219 7.02490234 47.44335938 C7 50 7 50 5 53 C2.0625 53.4375 2.0625 53.4375 -1 53 C-4.18808019 49.83192271 -4.51753408 46.92163804 -4.9140625 42.546875 C-5.03523438 41.28746094 -5.15640625 40.02804688 -5.28125 38.73046875 C-5.3946875 37.41691406 -5.508125 36.10335937 -5.625 34.75 C-5.8666363 32.16140682 -6.10880923 29.57286367 -6.3515625 26.984375 C-6.46177734 25.76637207 -6.57199219 24.54836914 -6.68554688 23.29345703 C-6.9371938 20.65780721 -7.22605753 18.03869705 -7.5703125 15.4140625 C-7.94184313 12.46208276 -8.19373604 9.59761278 -8.25 6.625 C-8.27578125 5.79226562 -8.3015625 4.95953125 -8.328125 4.1015625 C-8.21984375 3.40804687 -8.1115625 2.71453125 -8 2 C-4.78697711 -0.14201526 -3.73290719 -0.65325876 0 0 Z " fill="#78C2BE" transform="translate(33,36)"/>
<path d="M0 0 C3.50723627 2.39032735 5.5865237 5.12172783 6.50390625 9.2890625 C6.70985577 13.26189524 6.30818265 15.48269341 4.25 18.9375 C0.32294734 22.53729827 -2.4883825 23.51963811 -7.96875 23.38671875 C-11.68051579 22.68005565 -13.41650543 20.70651812 -16 18 C-18.31290717 14.23570477 -18.25555111 11.47755588 -17.68359375 7.19140625 C-16.50622832 3.41710906 -14.25423837 2.12521689 -11 0 C-7.42416806 -1.78791597 -3.74758869 -1.10481677 0 0 Z " fill="#77C2BE" transform="translate(93,23)"/>
<path d="M0 0 C4.11319937 2.54074891 7.1540072 5.49437776 9 10 C9.43054295 13.9466437 9.45194755 16.20387701 7.4765625 19.68359375 C4.14902097 22.79594726 1.33197818 22.7427168 -3 22.625 C-4.06734375 22.65400391 -4.06734375 22.65400391 -5.15625 22.68359375 C-8.86669448 22.64898139 -10.66834827 22.29538553 -13.46484375 19.8046875 C-15.95864806 15.24857683 -15.89513726 11.05221536 -15 6 C-10.91352539 0.47773701 -6.73583717 -0.78584767 0 0 Z " fill="#79C3BF" transform="translate(100,240)"/>
<path d="M0 0 C1.32 0 2.64 0 4 0 C6 2.37890625 6 2.37890625 8 5.5625 C9.03833984 7.2021875 9.03833984 7.2021875 10.09765625 8.875 C10.72542969 9.90625 11.35320312 10.9375 12 12 C12.45246094 12.7425 12.90492188 13.485 13.37109375 14.25 C14.87285833 16.80244969 16.06102679 19.18308038 17 22 C7.76 22 -1.48 22 -11 22 C-12.99110673 18.01778654 -12.65962535 13.31867919 -12 9 C-10.26104406 6.25735138 -8.96584625 5.62282153 -6 4 C-3.125 3.6875 -3.125 3.6875 -1 4 C-0.67 2.68 -0.34 1.36 0 0 Z " fill="#78C3BF" transform="translate(389,240)"/>
<path d="M0 0 C1.66289063 0.74056641 1.66289063 0.74056641 3.359375 1.49609375 C4.82284257 2.14339671 6.28638835 2.79052288 7.75 3.4375 C8.84441406 3.92573242 8.84441406 3.92573242 9.9609375 4.42382812 C10.66992188 4.73642578 11.37890625 5.04902344 12.109375 5.37109375 C12.75874023 5.65911865 13.40810547 5.94714355 14.07714844 6.24389648 C16.00804102 7.05868303 16.00804102 7.05868303 18.16113281 7.49243164 C20 8 20 8 21.3125 9.75 C22.1568112 12.51320029 21.76443018 14.24805136 21 17 C19.68 17 18.36 17 17 17 C17 17.66 17 18.32 17 19 C16.34 19 15.68 19 15 19 C15 19.66 15 20.32 15 21 C12.51166111 23.58787245 11.12121143 23.98917755 7.5 24.3125 C3.38187794 23.94481053 1.54049869 23.56721254 -1.3515625 20.625 C-4.72310183 16.55655031 -5.6726318 13.28785984 -5.3671875 8.0234375 C-4.88192019 5.34930487 -4.03603942 3.8011118 -2 2 C-1.34 2 -0.68 2 0 2 C0 1.34 0 0.68 0 0 Z " fill="#79C3BF" transform="translate(110,227)"/>
<path d="M0 0 C1.19109375 -0.00386719 1.19109375 -0.00386719 2.40625 -0.0078125 C4.5 0.125 4.5 0.125 6.5 1.125 C6.5 8.385 6.5 15.645 6.5 23.125 C3.43570224 24.65714888 0.8834358 24.35438548 -2.5 24.125 C-6.59613637 22.31507928 -9.23195328 19.9890796 -11.5 16.125 C-12.27247348 12.25548008 -12.4161202 8.75102883 -10.44140625 5.24609375 C-7.14998873 1.19286446 -5.06907393 -0.01645803 0 0 Z " fill="#78C3BF" transform="translate(408.5,228.875)"/>
<path d="M0 0 C7.59 0 15.18 0 23 0 C24 9 24 9 22.875 11.875 C20.15699002 14.95541131 18.0072715 16.70073407 13.8515625 17.3203125 C9.82919591 17.52076266 7.57879985 17.34481693 4.0625 15.25 C-0.7331903 10.01833785 0 7.60821519 0 0 Z " fill="#77C2BE" transform="translate(117,0)"/>
<path d="M0 0 C0.99 0.66 1.98 1.32 3 2 C2.67 3.32 2.34 4.64 2 6 C1.39671875 5.88140625 0.7934375 5.7628125 0.171875 5.640625 C-4.91645639 4.72464622 -4.91645639 4.72464622 -9.5625 6.5625 C-11.43656677 9.7402654 -11.5831246 11.35547122 -11 15 C-9.49987532 17.5647293 -8.10816535 19.89183465 -6 22 C-0.46449693 22.48323069 -0.46449693 22.48323069 4.5 20.5 C4.995 20.005 5.49 19.51 6 19 C5.505 16.525 5.505 16.525 5 14 C4.401875 14.33 3.80375 14.66 3.1875 15 C1 16 1 16 -2 16 C-2.33 14.68 -2.66 13.36 -3 12 C-1.92892883 11.13050683 -0.84254056 10.27985795 0.25 9.4375 C0.85328125 8.96183594 1.4565625 8.48617187 2.078125 7.99609375 C4 7 4 7 6.08984375 7.1796875 C9.36505141 8.5862184 10.42534727 10.90901501 12 14 C12.08288014 18.06112664 11.36189848 19.56773237 8.75 22.6875 C2.06022479 28.31299279 2.06022479 28.31299279 -3.5 28 C-8.05048901 27.30457643 -10.15064783 25.68739693 -13 22 C-13.598125 21.2575 -14.19625 20.515 -14.8125 19.75 C-16.51999219 15.79580755 -16.83167396 12.23537667 -16 8 C-13.75 5.125 -13.75 5.125 -11 3 C-10.071875 2.1028125 -10.071875 2.1028125 -9.125 1.1875 C-6.00250427 -0.55742408 -3.50876953 -0.31897905 0 0 Z " fill="#75C2BE" transform="translate(305,88)"/>
<path d="M0 0 C2.00720923 0.28674418 4.0085944 0.61866701 6 1 C6.33 1.99 6.66 2.98 7 4 C7.99 4 8.98 4 10 4 C10 4.66 10 5.32 10 6 C10.7425 6.28875 11.485 6.5775 12.25 6.875 C14.56739797 7.82302644 16.77917115 8.84845911 19 10 C19 10.66 19 11.32 19 12 C20.65 12.66 22.3 13.32 24 14 C23.67 14.99 23.34 15.98 23 17 C20.23723823 16.47731534 17.6739124 15.89130413 15 15 C12.96868328 16.28511874 10.96722008 17.61876037 9 19 C8.34 19 7.68 19 7 19 C7.33 21.97 7.66 24.94 8 28 C6.68 28.33 5.36 28.66 4 29 C-2.73005236 6.03287958 -2.73005236 6.03287958 -1 1 C-0.67 0.67 -0.34 0.34 0 0 Z " fill="#76C2BE" transform="translate(340,59)"/>
<path d="M0 0 C3 1 3 1 4.1875 3.125 C5.7364043 8.60573829 5.60798195 13.89742662 3 19 C-1.50365474 22.49263021 -5.20868566 23.72545878 -10.91796875 23.453125 C-14.42500227 22.68986817 -15.93249376 20.81932668 -18 18 C-19.3125 15.1875 -19.3125 15.1875 -20 13 C-13.62151248 9.26918654 -8.35423405 8.27037625 -1 8 C-0.67 5.36 -0.34 2.72 0 0 Z " fill="#79C4BF" transform="translate(287,109)"/>
<path d="M0 0 C4.27765145 0.16142081 6.33316458 0.31561628 9.375 3.4375 C12.03250909 7.62818741 12.69838132 11.05060196 12 16 C9.71580532 19.04559291 7.89598505 19.01677661 4.125 19.625 C0.5387051 19.49068184 -1.06516559 18.4829269 -3.5 15.875 C-5.33349693 13.38345348 -6.00998291 11.95462316 -6.6875 8.875 C-5.77555412 5.06140815 -3.93892386 3.50883744 -1 1 C-0.67 0.67 -0.34 0.34 0 0 Z " fill="#5ABFB9" transform="translate(322,76)"/>
<path d="M0 0 C5.95284333 -0.66353349 9.7237273 1.56442556 14.75 4.375 C15.51699219 4.7875 16.28398438 5.2 17.07421875 5.625 C22.67805864 8.67805864 22.67805864 8.67805864 25 11 C24.44444444 15.55555556 24.44444444 15.55555556 23 17 C15.47761194 17.23880597 15.47761194 17.23880597 13 16 C13 15.34 13 14.68 13 14 C11.783125 13.731875 10.56625 13.46375 9.3125 13.1875 C5.40864459 12.21845788 1.90698203 10.90698203 -1 8 C-1.23529412 2.47058824 -1.23529412 2.47058824 0 0 Z " fill="#78C2BE" transform="translate(50,47)"/>
<path d="M0 0 C0.66 0.33 1.32 0.66 2 1 C2.55078125 4.06640625 2.55078125 4.06640625 2 8 C-0.57839634 10.82571347 -3.63831969 12.82864337 -6.8125 14.9375 C-7.64587891 15.52595703 -8.47925781 16.11441406 -9.33789062 16.72070312 C-15.52572409 21 -15.52572409 21 -19 21 C-20.72400705 17.55198589 -20.63374008 13.76110962 -20 10 C-17.5776532 7.89638304 -16.21754366 7 -13 7 C-13 6.34 -13 5.68 -13 5 C-9.0883778 1.18096057 -5.5701023 -0.77722358 0 0 Z " fill="#78C2BE" transform="translate(61,63)"/>
<path d="M0 0 C0.886875 -0.00257812 1.77375 -0.00515625 2.6875 -0.0078125 C5 0.125 5 0.125 7 1.125 C7 2.115 7 3.105 7 4.125 C5.98679687 4.05539063 5.98679687 4.05539063 4.953125 3.984375 C-0.61112204 3.67665981 -0.61112204 3.67665981 -5.625 5.75 C-7.44409148 8.89206711 -7.57408417 10.53697393 -7 14.125 C-5.2344231 17.1853333 -3.49412245 19.63087755 -1 22.125 C2.53314892 22.58584551 4.3283861 22.57879318 7.3125 20.5625 C9.46797134 17.44904139 9.7128051 14.85853364 10 11.125 C11.32 10.795 12.64 10.465 14 10.125 C14.47069944 14.83199441 14.85562871 18.73507379 11.75 22.5625 C8.16440047 25.90362684 6.51038727 26.89701702 1.6875 27.625 C-3.1452632 26.96971007 -5.86380593 24.80454685 -9 21.125 C-9 20.465 -9 19.805 -9 19.125 C-9.66 19.125 -10.32 19.125 -11 19.125 C-12.35624248 15.05627256 -12.66606438 11.37478036 -12 7.125 C-9.05741764 1.82176388 -5.90204896 -0.01715712 0 0 Z " fill="#75C2BE" transform="translate(384,30.875)"/>
<path d="M0 0 C0.495 0.33 0.99 0.66 1.5 1 C1.5 3.31 1.5 5.62 1.5 8 C1.17 7.34 0.84 6.68 0.5 6 C-3.25221209 4.07029092 -6.30953032 3.64336428 -10.5 4 C-11.85166003 4.62867908 -13.1893765 5.28972662 -14.5 6 C-14.15488627 13.09745488 -14.15488627 13.09745488 -10.5 19 C-10.5 19.66 -10.5 20.32 -10.5 21 C-6.87 21 -3.24 21 0.5 21 C0.83 20.34 1.16 19.68 1.5 19 C1.5 20.65 1.5 22.3 1.5 24 C-2.35501332 26.24657239 -4.97206879 26.20344944 -9.3046875 25.6171875 C-12.70487104 24.66126401 -14.41303139 22.76018429 -16.5 20 C-16.5 19.34 -16.5 18.68 -16.5 18 C-17.16 18 -17.82 18 -18.5 18 C-19.74443369 14.26669892 -20.15860234 10.8711182 -19.5 7 C-17.81328708 3.91668878 -15.48718059 1.74889562 -12.6875 -0.375 C-8.41520675 -1.59565521 -4.13554507 -1.65421803 0 0 Z " fill="#75C2BE" transform="translate(413.5,16)"/>
<path d="M0 0 C0.70125 0.00515625 1.4025 0.0103125 2.125 0.015625 C2.82625 0.01046875 3.5275 0.0053125 4.25 0 C6.125 0.265625 6.125 0.265625 8.125 2.265625 C8.42578125 4.98046875 8.42578125 4.98046875 8.4375 8.203125 C8.45425781 9.26402344 8.47101563 10.32492188 8.48828125 11.41796875 C8.125 14.265625 8.125 14.265625 6.828125 16.15625 C5.125 17.265625 5.125 17.265625 1.5625 17.078125 C-1.875 16.265625 -1.875 16.265625 -3.875 14.265625 C-4.140625 11.515625 -4.140625 11.515625 -4.125 8.265625 C-4.13015625 7.193125 -4.1353125 6.120625 -4.140625 5.015625 C-3.8353717 1.85535551 -3.30892807 0.46876481 0 0 Z " fill="#F2FAF9" transform="translate(214.875,83.734375)"/>
<path d="M0 0 C2.15625 -0.44140625 2.15625 -0.44140625 5 0 C7.20090097 2.08817574 8.81144901 4.55332268 10.5 7.0625 C11.19029297 8.04766602 11.19029297 8.04766602 11.89453125 9.05273438 C12.81709516 10.37161095 13.73098977 11.69659547 14.63598633 13.02758789 C15.99594373 14.99413449 17.42196115 16.89922876 18.85546875 18.8125 C21 22 21 22 20.8125 24.9375 C20.544375 25.618125 20.27625 26.29875 20 27 C17.48465228 26.6235075 16.27064036 26.28923803 14.5078125 24.40527344 C14.05148438 23.73012695 13.59515625 23.05498047 13.125 22.359375 C12.61453125 21.61816406 12.1040625 20.87695312 11.578125 20.11328125 C11.05734375 19.33339844 10.5365625 18.55351563 10 17.75 C8.95970063 16.22302592 7.91806443 14.69696162 6.875 13.171875 C6.38515625 12.44677734 5.8953125 11.72167969 5.390625 10.97460938 C3.9084262 8.80683718 3.9084262 8.80683718 1.625 6.203125 C0 4 0 4 0 0 Z " fill="#76C2BE" transform="translate(60,27)"/>
<path d="M0 0 C2.5 2.0625 2.5 2.0625 4 5 C3.9375 8.6875 3.9375 8.6875 3 12 C0 14 0 14 -3.5 13.875 C-7 13 -7 13 -8.9375 11.3125 C-10.3174949 8.30898169 -10.41747718 6.27023793 -10 3 C-7.72173273 -1.02047165 -4.20946973 -0.59080277 0 0 Z " fill="#59BFB9" transform="translate(111,13)"/>
<path d="M0 0 C1.45945288 0.08708669 2.91765868 0.19526907 4.375 0.3125 C5.59316406 0.39951172 5.59316406 0.39951172 6.8359375 0.48828125 C9 1 9 1 11 4 C11.54170249 10.06706793 11.54170249 10.06706793 9.875 12.9375 C7.06487736 14.52990283 5.17235276 14.45319325 2 14 C-0.375 12.5 -0.375 12.5 -2 10 C-2.32638734 7.24150058 -2.18634339 4.79515088 -2 2 C-1.34 2 -0.68 2 0 2 C0 1.34 0 0.68 0 0 Z " fill="#5CC0BA" transform="translate(92,246)"/>
<path d="M0 0 C2.15477365 1.62896764 2.91680381 2.4981391 3.36328125 5.19140625 C3.34652344 5.97386719 3.32976562 6.75632813 3.3125 7.5625 C3.30863281 8.34753906 3.30476563 9.13257813 3.30078125 9.94140625 C3 12 3 12 1 14 C-2.375 14.4375 -2.375 14.4375 -6 14 C-8.5 11.9375 -8.5 11.9375 -10 9 C-10 5.3125 -10 5.3125 -9 2 C-6.2426734 -0.26494685 -3.48448552 -0.44672891 0 0 Z " fill="#5CC0BA" transform="translate(412,234)"/>
<path d="M0 0 C0.8125 2.6875 0.8125 2.6875 1 6 C-1.375 8.8125 -1.375 8.8125 -4 11 C-4.33 11.33 -4.66 11.66 -5 12 C-9.58679904 12.41698173 -12.41181047 11.97307133 -16 9 C-16.8125 6.3125 -16.8125 6.3125 -17 4 C-13.83648131 2.21583543 -10.9462452 1.48143786 -7.375 0.875 C-6.41335938 0.70742187 -5.45171875 0.53984375 -4.4609375 0.3671875 C-2 0 -2 0 0 0 Z " fill="#5DC0BB" transform="translate(288,116)"/>
<path d="M0 0 C2.82272533 0.0923801 3.79240804 0.17856948 6.125 1.875 C7.54882408 5.67186421 6.84237296 8.41064577 6.0625 12.375 C5.0625 13.375 5.0625 13.375 1.1875 13.625 C-1.29945054 13.57151719 -2.69629953 13.49560023 -4.9375 12.375 C-6.62227849 9.00544301 -6.23400704 6.1109887 -5.9375 2.375 C-3.9375 0.375 -3.9375 0.375 0 0 Z " fill="#5CC0BA" transform="translate(387.9375,248.625)"/>
<path d="M0 0 C2 1.625 2 1.625 3 4 C2.875 7.625 2.875 7.625 2 11 C-1.24826674 13.16551116 -2.23094157 13.55156953 -6 13 C-8.3125 11.4375 -8.3125 11.4375 -10 9 C-10.42880369 5.50831283 -10.60791865 3.14431746 -8.9375 0 C-5.73276125 -1.65405871 -3.38694881 -0.90721843 0 0 Z " fill="#58BFB9" transform="translate(91,28)"/>
<path d="M0 0 C2.375 1.4375 2.375 1.4375 4 4 C4.03175918 7.07534692 3.59220464 9.98748075 3 13 C-5.21324503 13.61986755 -5.21324503 13.61986755 -8.0625 11.375 C-9.27010751 8.31572764 -9.48542894 6.25930862 -9 3 C-6.31164707 0.01294119 -3.93697301 -0.68897028 0 0 Z " fill="#5CC0BA" transform="translate(119,232)"/>
<path d="M0 0 C1.62418745 -0.08090971 3.24951745 -0.13914995 4.875 -0.1875 C5.77992188 -0.22230469 6.68484375 -0.25710937 7.6171875 -0.29296875 C8.79667969 -0.14794922 8.79667969 -0.14794922 10 0 C12.31282587 3.46923881 12.42478586 4.92205575 12 9 C10.875 10.875 10.875 10.875 9 12 C5.90953021 12.38630872 3.91087907 12.5339636 1.1875 10.9375 C-0.5816917 8.05092408 -0.75726838 5.33755975 -1 2 C-0.67 1.34 -0.34 0.68 0 0 Z " fill="#58BEB9" transform="translate(123,0)"/>
<path d="M0 0 C2.29296875 -0.27734375 2.29296875 -0.27734375 5 0 C6.80078125 1.93359375 6.80078125 1.93359375 8.3125 4.4375 C8.82425781 5.26121094 9.33601563 6.08492188 9.86328125 6.93359375 C11 9 11 9 11 10 C4.07 10 -2.86 10 -10 10 C-9.67 8.68 -9.34 7.36 -9 6 C-5.70173093 4.21715186 -3.8225249 4 0 4 C0 2.68 0 1.36 0 0 Z " fill="#76C3BE" transform="translate(75,252)"/>
<path d="M0 0 C0.99 0 1.98 0 3 0 C4.60546875 1.8984375 4.60546875 1.8984375 6.1875 4.375 C6.98220703 5.59316406 6.98220703 5.59316406 7.79296875 6.8359375 C9 9 9 9 9 11 C9.66 11 10.32 11 11 11 C12.32421875 12.609375 12.32421875 12.609375 13.6875 14.75 C14.14511719 15.44609375 14.60273438 16.1421875 15.07421875 16.859375 C16.16906025 19.39090725 15.9435441 20.46100862 15 23 C14.01 23 13.02 23 12 23 C10.16796875 20.69140625 10.16796875 20.69140625 8.1875 17.5625 C7.49011719 16.47582031 6.79273438 15.38914062 6.07421875 14.26953125 C5.38972656 13.19058594 4.70523437 12.11164062 4 11 C2.83841723 9.24662138 1.67244432 7.49613442 0.5 5.75 C-0.75 3.875 -0.75 3.875 -2 2 C-1.34 1.34 -0.68 0.68 0 0 Z " fill="#75C2BE" transform="translate(354,49)"/>
<path d="M0 0 C0.55171875 0.23589844 1.1034375 0.47179687 1.671875 0.71484375 C1.671875 1.70484375 1.671875 2.69484375 1.671875 3.71484375 C-0.12109375 5.25 -0.12109375 5.25 -2.515625 6.77734375 C-3.29292969 7.28394531 -4.07023437 7.79054687 -4.87109375 8.3125 C-7.328125 9.71484375 -7.328125 9.71484375 -12.328125 11.71484375 C-12.328125 22.93484375 -12.328125 34.15484375 -12.328125 45.71484375 C-12.658125 45.71484375 -12.988125 45.71484375 -13.328125 45.71484375 C-13.328125 31.52484375 -13.328125 17.33484375 -13.328125 2.71484375 C-12.998125 4.03484375 -12.668125 5.35484375 -12.328125 6.71484375 C-11.31492187 5.93947266 -11.31492187 5.93947266 -10.28125 5.1484375 C-9.38921875 4.48972656 -8.4971875 3.83101562 -7.578125 3.15234375 C-6.69640625 2.49105469 -5.8146875 1.82976562 -4.90625 1.1484375 C-2.328125 -0.28515625 -2.328125 -0.28515625 0 0 Z " fill="#7EC8C4" transform="translate(272.328125,135.28515625)"/>
<path d="M0 0 C3.0625 0.1875 3.0625 0.1875 5.0625 2.1875 C4.6875 5.8125 4.6875 5.8125 4.0625 9.1875 C-1.34889241 10.51028481 -1.34889241 10.51028481 -3.875 9.125 C-5.45095523 6.25119928 -4.74251033 4.27337291 -3.9375 1.1875 C-2.9375 0.1875 -2.9375 0.1875 0 0 Z " fill="#76C2BE" transform="translate(42.9375,41.8125)"/>
<path d="M0 0 C2.6875 -0.0625 2.6875 -0.0625 6 1 C8.05859358 3.81926253 9.5527903 6.83022655 11 10 C6.6822542 9.49202991 2.96697886 8.80317221 -1 7 C-0.67 4.69 -0.34 2.38 0 0 Z " fill="#7DC6C2" transform="translate(124,219)"/>
<path d="M0 0 C0.78503906 0.06703125 1.57007813 0.1340625 2.37890625 0.203125 C4.4375 0.75 4.4375 0.75 6.4375 3.75 C0.8275 3.75 -4.7825 3.75 -10.5625 3.75 C-6.89747305 0.08497305 -4.9607668 -0.49035586 0 0 Z " fill="#7BC3BF" transform="translate(369.5625,258.25)"/>
<path d="M0 0 C2.9719385 1.12451727 5.33440687 2.22293791 8 4 C8 4.99 8 5.98 8 7 C4.66666667 10 4.66666667 10 2 10 C1.34 6.7 0.68 3.4 0 0 Z " fill="#5CBFB9" transform="translate(343,65)"/>
<path d="M0 0 C4.62 0 9.24 0 14 0 C13.67 0.66 13.34 1.32 13 2 C9.44646071 3.1845131 6.72986522 3.26641894 3 3 C2.01 2.01 1.02 1.02 0 0 Z " fill="#77C2BE" transform="translate(142,0)"/>
<path d="M0 0 C2.0625 0.4375 2.0625 0.4375 4 1 C4.33 2.32 4.66 3.64 5 5 C3.02 5.33 1.04 5.66 -1 6 C-1.042721 4.33388095 -1.04063832 2.66617115 -1 1 C-0.67 0.67 -0.34 0.34 0 0 Z " fill="#74C3BE" transform="translate(120,211)"/>
<path d="M0 0 C1.49080078 0.02707031 1.49080078 0.02707031 3.01171875 0.0546875 C3.77097656 0.07789062 4.53023438 0.10109375 5.3125 0.125 C5.6425 0.785 5.9725 1.445 6.3125 2.125 C5.56484375 2.18558594 4.8171875 2.24617188 4.046875 2.30859375 C3.06203125 2.39238281 2.0771875 2.47617188 1.0625 2.5625 C0.08796875 2.64371094 -0.8865625 2.72492188 -1.890625 2.80859375 C-4.25211753 3.07574584 -6.40651065 3.47871968 -8.6875 4.125 C-8.6875 3.465 -8.6875 2.805 -8.6875 2.125 C-5.26655758 -0.15562828 -4.00562778 -0.09425007 0 0 Z " fill="#78C4C0" transform="translate(278.6875,104.875)"/>
<path d="M0 0 C1.65 0 3.3 0 5 0 C5.5625 1.9375 5.5625 1.9375 6 4 C5 5 5 5 2.4375 5.0625 C1.2309375 5.0315625 1.2309375 5.0315625 0 5 C0 3.35 0 1.7 0 0 Z " fill="#73C2BD" transform="translate(373,61)"/>
<path d="M0 0 C0.33 0 0.66 0 1 0 C1.03738281 0.59167969 1.07476562 1.18335938 1.11328125 1.79296875 C1.51376901 6.60667451 2.0385035 10.00841777 5 14 C3.125 13.75 3.125 13.75 1 13 C-1.03603536 9.91843297 -1.154702 7.85197363 -0.625 4.25 C-0.51414062 3.45078125 -0.40328125 2.6515625 -0.2890625 1.828125 C-0.19367188 1.22484375 -0.09828125 0.6215625 0 0 Z " fill="#65C1BB" transform="translate(84,248)"/>
</svg>
